<?xml version="1.0" standalone="no"?>
<!DOCTYPE svg PUBLIC "-//W3C//DTD SVG 20010904//EN"
 "http://www.w3.org/TR/2001/REC-SVG-20010904/DTD/svg10.dtd">
<svg version="1.0" xmlns="http://www.w3.org/2000/svg"
 width="700.000000pt" height="700.000000pt" viewBox="0 0 700.000000 700.000000"
 preserveAspectRatio="xMidYMid meet">
<metadata>
Created by potrace 1.11, written by Peter Selinger 2001-2013
</metadata>
<g transform="translate(0.000000,700.000000) scale(0.100000,-0.100000)"
fill="#000000" stroke="none">
<path d="M371 6652 c-172 -35 -310 -168 -356 -343 -13 -46 -15 -374 -15 -2209
0 -1419 4 -2170 11 -2200 38 -169 172 -308 338 -352 62 -16 268 -17 3144 -17
3416 -1 3154 -6 3274 65 109 66 181 160 215 282 17 63 18 165 18 2222 0 1854
-2 2163 -15 2210 -46 173 -179 303 -356 346 -13 4 -1412 7 -3108 8 -2529 1
-3096 -1 -3150 -12z m3279 -871 c258 -68 438 -234 519 -479 27 -84 34 -148 34
-329 l0 -153 86 -1 c105 -1 133 -5 191 -26 95 -33 190 -131 218 -223 13 -44
18 -76 36 -245 3 -27 10 -93 16 -145 13 -116 17 -158 25 -235 4 -33 8 -73 10
-90 6 -49 17 -148 20 -180 5 -52 15 -149 20 -185 2 -19 7 -62 10 -95 3 -33 7
-71 10 -85 2 -14 7 -54 10 -90 3 -36 7 -75 9 -85 2 -11 7 -54 11 -95 3 -41 8
-88 11 -105 10 -75 12 -206 3 -241 -34 -131 -138 -236 -267 -269 -51 -13 -201
-15 -1158 -13 l-1099 3 -57 29 c-109 55 -173 128 -204 235 -17 59 -16 136 6
326 6 50 12 113 15 140 3 28 7 66 10 85 2 19 7 60 10 90 10 100 16 155 20 180
2 14 7 59 10 100 4 41 9 83 10 92 2 9 7 52 10 95 4 43 8 85 10 93 2 8 6 44 9
80 4 36 11 101 16 145 5 44 12 109 15 145 3 36 8 74 10 85 2 11 7 54 11 95 11
133 49 219 127 291 76 71 147 95 292 98 49 1 92 4 95 6 3 2 6 66 5 142 -1 220
14 307 76 435 93 194 286 342 499 383 77 14 227 12 290 -4z"/>
<path d="M3366 5545 c-163 -47 -288 -175 -332 -340 -11 -38 -14 -149 -14 -457
0 -229 -4 -417 -9 -431 -17 -44 -58 -73 -107 -76 -40 -2 -49 2 -80 33 -18 18
-35 45 -35 58 -1 12 -3 70 -4 128 -1 58 -3 110 -4 116 -1 8 -29 11 -90 9 -103
-3 -150 -24 -172 -78 -16 -37 -15 -34 -24 -130 -4 -39 -8 -79 -10 -87 -1 -8
-6 -51 -10 -94 -4 -43 -8 -86 -10 -95 -1 -9 -6 -45 -10 -81 -6 -65 -10 -99
-20 -195 -6 -49 -8 -68 -20 -170 -3 -27 -7 -75 -10 -105 -3 -30 -9 -91 -15
-135 -5 -44 -12 -107 -15 -140 -4 -33 -8 -71 -10 -85 -2 -14 -7 -56 -11 -95
-9 -93 -11 -111 -18 -170 -21 -172 -13 -215 48 -258 l31 -22 1070 -1 c1027 0
1072 0 1108 18 44 22 76 80 72 131 -8 98 -17 193 -20 197 -2 3 -6 46 -10 95
-4 50 -9 92 -10 95 -2 3 -6 41 -10 85 -4 44 -8 87 -10 95 -2 8 -6 51 -11 95
-4 44 -8 82 -9 85 -1 3 -5 39 -9 80 -4 41 -9 91 -11 110 -3 19 -7 60 -10 90
-3 30 -7 65 -9 78 -3 12 -8 61 -11 110 -4 48 -8 89 -10 92 -2 3 -6 41 -10 85
-4 44 -9 88 -11 99 -2 10 -6 51 -10 90 -8 100 -20 139 -51 170 -33 33 -59 40
-158 41 l-80 0 -1 -110 c-1 -151 -8 -179 -48 -210 -38 -29 -83 -32 -126 -10
-50 26 -60 59 -60 202 l0 129 -307 -1 c-170 0 -320 3 -335 8 -45 14 -78 62
-78 110 1 46 15 71 57 99 26 16 55 18 346 18 l317 0 -1 163 c0 188 -15 261
-69 351 -108 179 -334 269 -534 211z"/>
<path d="M2997 1280 c-19 -16 -21 -28 -23 -111 -1 -91 7 -126 30 -141 6 -4 83
-5 171 -1 204 9 468 9 662 -1 191 -8 187 -11 188 130 1 78 -2 100 -17 119
l-17 22 -486 0 c-449 0 -488 -1 -508 -17z"/>
<path d="M3507 804 c-1 -1 -99 -4 -217 -8 -118 -4 -231 -8 -250 -11 -19 -2
-73 -6 -119 -10 -46 -4 -91 -8 -100 -10 -9 -1 -43 -6 -76 -9 -75 -9 -115 -15
-185 -26 -30 -5 -73 -12 -95 -16 -242 -36 -636 -141 -678 -180 -72 -67 -23
-196 76 -196 18 0 71 12 117 26 85 26 304 80 370 91 19 3 53 10 75 15 50 11
224 39 285 46 25 3 56 7 69 9 22 4 80 10 186 20 273 27 883 26 1065 0 14 -2
60 -6 103 -10 43 -3 87 -8 99 -10 11 -2 40 -7 64 -9 60 -7 346 -56 353 -60 3
-2 22 -7 41 -10 42 -7 241 -56 360 -89 61 -17 94 -21 116 -16 87 24 112 148
40 201 -12 9 -60 28 -107 42 -83 25 -385 100 -445 110 -138 24 -276 46 -314
51 -68 8 -122 15 -150 20 -14 2 -65 7 -115 11 -49 3 -97 8 -106 9 -14 3 -153
9 -417 18 -24 1 -44 1 -45 1z"/>
</g>
</svg>
